<?xml version="1.0" encoding="utf-8"?>
<!-- Generator: Adobe Illustrator 16.0.0, SVG Export Plug-In . SVG Version: 6.00 Build 0)  -->
<!DOCTYPE svg PUBLIC "-//W3C//DTD SVG 1.1//EN" "http://www.w3.org/Graphics/SVG/1.1/DTD/svg11.dtd">
<svg version="1.1" id="Layer_1" xmlns="http://www.w3.org/2000/svg" xmlns:xlink="http://www.w3.org/1999/xlink" x="0px" y="0px"
	 width="600px" height="400px" viewBox="0 0 600 400" enable-background="new 0 0 600 400" xml:space="preserve">
<g>
	<polyline fill-rule="evenodd" clip-rule="evenodd" fill="#FFFFFF" points="484.456,146.038 499.959,145.999 524.86,196.248 
		526.667,198.651 526.667,146.155 542.94,146.155 542.94,238.824 527.694,238.811 526.68,236.865 502.536,188.664 500.745,186.218 
		500.745,238.677 484.456,238.677 484.456,146.038 	"/>
	<path fill-rule="evenodd" clip-rule="evenodd" fill="#FFFFFF" d="M358.077,238.729c-5.676,0-10.906,0-16.266,0
		c0-30.837,0-61.466,0-92.596c0.807,0,1.666-0.094,2.525-0.094c12.498,0,24.996-0.03,37.492,0.009
		c11.305,0.036,18.162,7.218,18.115,18.069c-0.029,6.578-0.141,13.159,0.029,19.732c0.199,7.752-4.607,14.075-11.561,16.001
		c-0.764,0.212-1.504,0.504-2.506,0.843c4.719,12.681,9.406,25.275,14.195,38.144c-5.748,0-11.16,0.042-16.568-0.064
		c-0.541-0.011-1.328-0.824-1.559-1.432c-3.105-8.224-6.131-16.48-9.182-24.725c-1.26-3.403-2.287-6.909-3.861-10.176
		c-0.775-1.607-0.793-1.625-1.988-1.612c-2.938,0.031-5.729,0.014-8.867,0.014C358.077,213.485,358.077,226.012,358.077,238.729z
		 M358.168,162.839c0,7.226,0,14.154,0,21.199c7.238,0,14.299,0.045,21.357-0.026c2.254-0.022,4.021-2.062,4.082-4.659
		c0.092-3.942,0.092-7.889,0-11.832c-0.061-2.597-1.83-4.635-4.084-4.657C372.465,162.794,365.405,162.839,358.168,162.839z"/>
	<path fill-rule="evenodd" clip-rule="evenodd" fill="#FFFFFF" d="M471.502,192.703c0,9.7,0.186,19.405-0.068,29.099
		c-0.156,5.912-2.166,11.353-7.633,14.415c-2.582,1.447-5.762,2.399-8.711,2.511c-8.619,0.326-17.262,0.251-25.889,0.079
		c-9.227-0.183-15.643-6.825-15.852-15.173c-0.492-19.688-0.58-39.389-0.514-59.084c0.023-6.453,2.082-12.548,8.146-15.933
		c2.695-1.504,6.064-2.333,9.172-2.464c7.959-0.337,15.945-0.273,23.914-0.073c10.881,0.272,16.924,6.511,17.355,17.528
		C471.801,173.291,471.502,183.002,471.502,192.703z M455.198,192.694c0-8.056,0.018-16.112-0.008-24.168
		c-0.014-3.926-1.697-5.675-5.396-5.686c-5.178-0.015-10.357-0.024-15.537,0.005c-2.807,0.016-4.693,1.81-4.695,4.498
		c-0.018,16.769-0.018,33.539,0,50.308c0.002,2.279,1.477,4.214,3.732,4.346c5.387,0.317,10.801,0.648,16.182,0.437
		c4.256-0.168,5.721-2.24,5.721-6.559C455.198,208.148,455.198,200.421,455.198,192.694z"/>
	<path fill-rule="evenodd" clip-rule="evenodd" fill="#FFFFFF" d="M318.011,299.836c0,9.62,0.064,19.24-0.023,28.859
		c-0.059,6.491-2.478,11.925-8.252,15.263c-1.944,1.125-4.398,1.844-6.64,1.896c-9.122,0.209-18.253-0.031-27.377,0.123
		c-7.907,0.133-13.492-5.006-15.375-11.995c-0.729-2.707-1.022-5.604-1.038-8.417c-0.092-17.102-0.169-34.205,0.025-51.305
		c0.063-5.566,0.608-11.177,4.88-15.616c2.921-3.037,6.34-4.911,10.492-4.971c9.371-0.134,18.754-0.295,28.116,0.037
		c7.592,0.27,12.844,5.121,14.623,12.945c0.587,2.583,0.524,5.341,0.545,8.021C318.05,283.063,318.011,291.45,318.011,299.836z
		 M276.059,299.955c0,8.134-0.003,16.269,0.001,24.403c0.002,3.438,1.775,5.248,5.243,5.271c5.011,0.032,10.024,0.024,15.036,0.002
		c3.245-0.015,5.353-2.038,5.356-5.217c0.02-16.269,0.018-32.537,0.002-48.806c-0.004-3.457-2.138-5.624-5.602-5.659
		c-4.847-0.049-9.7-0.149-14.541,0.032c-3.755,0.141-5.584,1.872-5.532,5.571C276.138,283.685,276.059,291.82,276.059,299.955z"/>
	<path fill-rule="evenodd" clip-rule="evenodd" fill="#FFFFFF" d="M389.575,299.731c0,9.533,0.119,19.068-0.049,28.599
		c-0.092,5.214-1.588,10.005-5.65,13.714c-2.703,2.468-5.809,3.854-9.43,3.877c-9.041,0.06-18.084-0.095-27.121,0.054
		c-8.035,0.132-13.328-4.792-15.398-11.663c-0.734-2.438-1.043-5.09-1.057-7.647c-0.086-18.162-0.086-36.326-0.018-54.488
		c0.018-4.601,1.219-8.917,4.039-12.696c2.822-3.78,6.689-5.709,11.252-5.797c9.365-0.18,18.744-0.281,28.104,0.015
		c7.99,0.253,13.992,5.773,14.695,13.85c0.771,8.87,0.473,17.834,0.627,26.757C389.6,296.115,389.575,297.923,389.575,299.731z
		 M373.268,299.879c0-7.892,0.023-15.784-0.008-23.675c-0.016-3.816-2.02-6.193-5.357-6.247c-5.014-0.08-10.029-0.087-15.043,0.005
		c-3.111,0.058-4.66,1.338-5.217,4.3c-0.355,1.896-0.486,3.861-0.492,5.795c-0.039,14.221-0.084,28.443,0.012,42.664
		c0.035,5.181,2.09,7.185,6.883,6.956c6.154-0.039,6.164,0.05,12.57,0.024c4.459,0.026,6.721-2.375,6.676-6.641
		C373.211,315.334,373.268,307.606,373.268,299.879z"/>
	<polygon fill-rule="evenodd" clip-rule="evenodd" fill="#FFFFFF" points="158.56,76.759 158.56,39.142 175.2,39.142 175.2,131.096 
		158.647,131.096 158.647,93.431 133.037,93.431 133.037,131.048 116.803,131.048 116.803,39.094 132.862,39.094 132.862,76.759 
		158.56,76.759 	"/>
	<polygon fill-rule="evenodd" clip-rule="evenodd" fill="#FFFFFF" points="188.365,253.748 204.495,253.748 204.495,272.54 
		204.495,291.452 230.141,291.452 230.141,272.778 230.141,253.832 246.271,253.832 246.271,345.789 230.208,345.789 
		230.208,308.121 204.597,308.121 204.597,345.741 188.365,345.741 188.365,253.748 	"/>
	<path fill-rule="evenodd" clip-rule="evenodd" fill="#FFFFFF" d="M110.881,272.582c-5.623,1.431-10.918,2.779-16.212,4.126
		c-1.02-5.701-2.284-6.771-8.012-6.771c-4.029,0-8.058-0.025-12.086,0.007c-3.809,0.031-5.793,2.08-5.798,5.911
		c-0.003,3.042-0.007,6.084,0.001,9.126c0.007,2.941,1.74,5.067,4.646,5.648c7.497,1.497,15.04,2.792,22.487,4.503
		c9.902,2.276,14.447,7.264,14.787,17.871c0.168,5.257,0.104,10.524,0.013,15.785c-0.166,9.594-6.103,17.268-17.005,17.17
		c-8.55-0.077-17.102,0.009-25.652-0.022c-9.446-0.034-14.93-7.282-15.58-15.394c-0.083-1.037-0.135-2.076-0.205-3.163
		c0.531-0.208,1.104-0.513,1.717-0.663c4.822-1.181,9.651-2.332,14.481-3.493c1.076,5.556,2.157,6.415,7.951,6.415
		c4.029,0,8.058,0.014,12.086-0.004c3.15-0.015,5.384-1.479,5.734-4.526c0.371-3.232,0.347-6.583-0.062-9.811
		c-0.418-3.305-2.925-4.586-7.369-5.435c-7.606-1.453-15.236-2.919-22.69-4.979c-6.424-1.776-11.569-7.863-11.665-15.375
		c-0.068-5.314-0.579-10.636-0.398-15.938c0.183-5.34,0.823-10.637,4.847-14.894c3.034-3.208,6.602-4.972,10.929-5.017
		c8.796-0.091,17.595-0.029,26.392-0.027c8.074,0.002,14.43,5.207,15.985,13.183C110.569,268.705,110.661,270.649,110.881,272.582z"
		/>
	<polygon fill-rule="evenodd" clip-rule="evenodd" fill="#FFFFFF" points="202.147,114.967 244.333,114.967 244.333,131.05 
		185.899,131.05 185.899,39.094 244.342,39.094 244.342,55.135 202.188,55.135 202.188,76.885 227.514,76.885 227.514,93.217 
		202.147,93.217 202.147,114.967 	"/>
	<path fill-rule="evenodd" clip-rule="evenodd" fill="#FFFFFF" d="M246.674,238.84l-16.931-0.023l-0.532-2.08l-3.054-13.193h-8.884
		h-8.723l-3.121,13.528l-1.522,1.69l-15.875,0.077l21.479-92.706h15.571L246.674,238.84L246.674,238.84z M217.622,186.197
		l-0.513-0.021l-4.678,20.393h9.855L217.622,186.197L217.622,186.197z"/>
	<path fill-rule="evenodd" clip-rule="evenodd" fill="#FFFFFF" d="M163.745,323.241c4.85,1.17,9.553,2.342,14.277,3.422
		c1.339,0.306,1.854,0.903,1.823,2.322c-0.192,8.952-6.547,17.266-16.512,17.005c-13.719,0-17.438-0.045-26.157-0.048
		c-9.492-0.003-15.368-7.416-15.54-15.391c-0.402-18.637-0.502-37.281-0.503-55.923c0-4.826,0.354-9.719,3.334-13.982
		c3.18-4.547,7.395-6.979,12.934-7.004c8.144-0.037,14.587-0.017,24.428-0.073c11.785,0,18.449,8.676,17.912,19.062
		c-5.284,1.351-10.633,2.719-15.983,4.086c-0.864-5.051-2.92-6.778-8.064-6.78c-3.948-0.001-7.897-0.016-11.845,0.004
		c-3.987,0.02-5.982,2.026-5.983,5.98c-0.002,16.123-0.002,32.245,0,48.367c0,3.566,1.772,5.325,5.424,5.344
		c7.074,0.075,7.074,0.075,12.831,0.033C161.859,329.851,162.823,327.652,163.745,323.241z"/>
	<polygon fill-rule="evenodd" clip-rule="evenodd" fill="#FFFFFF" points="68.714,200.749 68.714,238.72 51.972,238.72 
		51.972,236.137 51.924,149.051 51.924,145.986 107.992,146.038 110.568,146.038 110.568,162.763 68.958,162.763 68.958,184.014 
		94.315,184.014 94.315,200.749 68.714,200.749 	"/>
	<polyline fill-rule="evenodd" clip-rule="evenodd" fill="#FFFFFF" points="121.019,146.038 137.867,145.999 137.867,150.082 
		137.867,222.524 179.613,222.524 179.613,238.662 121.064,238.662 121.073,236.337 121.019,146.038 	"/>
	<polygon fill-rule="evenodd" clip-rule="evenodd" fill="#FFFFFF" points="299.145,146.133 299.145,162.756 278.155,162.756 
		278.155,238.668 261.771,238.668 261.771,162.92 241.192,162.92 241.192,146.133 299.145,146.133 	"/>
	<polyline fill-rule="evenodd" clip-rule="evenodd" fill="#FFFFFF" points="68.99,55.245 47.708,55.245 47.708,39.052 
		47.708,39.052 106.149,39.052 106.149,55.134 85.109,55.134 85.109,131.116 68.752,131.116 68.752,55.245 	"/>
	<polygon fill-rule="evenodd" clip-rule="evenodd" fill="#FFFFFF" points="402.477,345.777 402.477,253.785 418.684,253.785 
		418.684,329.573 460.952,329.573 460.952,345.777 402.477,345.777 	"/>
	<polygon fill-rule="evenodd" clip-rule="evenodd" fill="#FFFFFF" points="312.069,238.698 312.069,236.196 312.037,146.133 
		312.037,145.999 328.209,146.133 328.209,238.698 312.069,238.698 	"/>
	<polyline fill-rule="evenodd" clip-rule="evenodd" fill="#45A2CE" points="297.169,53.922 279.571,111.279 271.64,137.685 
		271.084,139.592 259.45,139.598 261.614,132.169 274.556,89.854 292.449,30.603 294.629,30.56 304.148,30.591 	"/>
	<polygon fill-rule="evenodd" clip-rule="evenodd" fill="#45A2CE" points="311.419,139.48 299.7,139.48 332.6,30.706 
		344.434,30.706 311.419,139.48 	"/>
</g>
</svg>
